<?xml version="1.0" standalone="no"?>
<!DOCTYPE svg PUBLIC "-//W3C//DTD SVG 20010904//EN"
 "http://www.w3.org/TR/2001/REC-SVG-20010904/DTD/svg10.dtd">
<svg version="1.0" xmlns="http://www.w3.org/2000/svg"
 width="400.000000pt" height="400.000000pt" viewBox="0 0 400.000000 400.000000"
 preserveAspectRatio="xMidYMid meet">

<g transform="translate(0.000000,400.000000) scale(0.100000,-0.100000)"
fill="#000000" stroke="none">
<path d="M1875 3589 c-93 -16 -476 -78 -850 -139 -373 -61 -681 -112 -682
-114 -4 -4 661 -549 675 -554 7 -2 12 53 14 150 3 174 14 207 82 262 l38 31
783 0 784 0 36 -35 c46 -44 65 -109 65 -217 0 -83 0 -84 23 -77 12 3 121 41
242 84 121 43 295 104 387 136 150 53 195 74 155 74 -7 0 -365 97 -796 215
-430 118 -784 215 -784 214 -1 -1 -78 -14 -172 -30z"/>
<path d="M274 3274 c3 -11 107 -377 231 -814 124 -437 230 -806 235 -819 13
-30 833 -1242 837 -1237 2 2 -10 185 -27 407 -16 222 -32 445 -35 494 -10 150
9 135 -171 135 -142 0 -160 2 -195 22 -44 24 -92 92 -108 153 -7 26 -11 215
-11 551 l0 511 -372 304 c-204 167 -376 306 -381 308 -5 2 -7 -5 -3 -15z"/>
<path d="M1195 3181 c-46 -11 -71 -31 -97 -75 l-23 -41 0 -710 0 -710 24 -53
c13 -29 37 -64 53 -77 l30 -25 754 0 755 0 24 26 c55 60 55 56 55 839 l0 721
-22 44 c-17 34 -32 48 -58 57 -39 13 -1441 17 -1495 4z m1479 -47 c40 -15 41
-31 46 -617 4 -457 3 -567 -8 -567 -31 0 -83 31 -101 61 -45 73 -35 146 27
200 51 44 62 66 50 101 -12 34 -72 88 -98 88 -11 0 -34 -13 -52 -28 -57 -49
-81 -62 -116 -62 -77 0 -144 56 -156 132 -14 86 -57 109 -141 74 -47 -20 -55
-40 -42 -107 5 -31 7 -68 3 -82 -9 -39 -51 -83 -95 -100 -36 -15 -44 -15 -106
3 -76 22 -96 17 -118 -28 -41 -80 -26 -121 51 -146 59 -20 97 -58 111 -112 15
-58 0 -99 -60 -160 -60 -61 -61 -82 -4 -139 45 -44 72 -44 124 -1 72 60 142
67 207 22 26 -19 54 -75 54 -110 l0 -26 -521 0 -522 0 -32 34 c-48 51 -55 96
-55 355 l0 230 35 7 c45 8 89 -10 116 -48 21 -29 22 -35 3 -141 -6 -36 -5 -38
31 -53 61 -25 87 -16 106 35 22 60 59 91 110 91 32 0 47 -7 83 -40 51 -48 73
-50 115 -11 39 36 39 49 1 96 -38 48 -45 75 -31 118 15 46 37 64 91 76 54 12
73 35 64 76 -13 63 -20 68 -85 61 -71 -8 -107 7 -134 58 -17 31 -18 41 -7 81
7 25 12 54 12 65 0 23 -47 50 -87 50 -25 0 -32 -7 -56 -58 -29 -63 -54 -82
-113 -82 -26 0 -45 9 -78 40 -24 22 -52 40 -64 40 -18 0 -82 -61 -82 -78 0 -4
16 -27 35 -51 41 -51 45 -90 15 -139 -16 -27 -53 -52 -76 -52 -3 0 -4 174 -2
388 3 349 5 389 20 412 37 51 14 49 790 50 399 0 734 -3 742 -6z m-1131 -719
c32 -24 67 -91 67 -130 0 -39 -35 -106 -67 -130 -17 -11 -49 -21 -83 -23 -45
-3 -61 0 -89 20 -57 38 -75 72 -75 133 0 61 18 95 75 133 28 20 44 23 89 20
34 -2 66 -12 83 -23z m838 -240 c48 -31 89 -113 89 -174 -1 -60 -29 -120 -74
-158 -142 -117 -345 -21 -346 163 0 166 189 263 331 169z m327 -421 c18 -5 15
-115 -4 -164 -9 -22 -25 -45 -35 -50 -24 -13 -216 -13 -224 0 -3 5 -9 40 -12
77 -4 60 -2 72 19 103 13 19 38 42 55 51 28 14 39 14 110 1 43 -8 84 -16 91
-18z"/>
<path d="M1608 2904 c-32 -46 -58 -88 -58 -93 0 -10 207 -27 216 -18 3 3 -2
19 -10 36 -9 16 -16 34 -16 39 0 13 102 39 180 47 80 8 212 -14 278 -46 63
-31 142 -112 176 -181 l28 -57 -21 -22 c-33 -36 -28 -91 10 -123 39 -33 69
-33 108 0 56 47 36 132 -34 150 -18 4 -34 24 -57 67 -42 79 -114 156 -175 190
-109 59 -292 74 -438 37 -43 -11 -79 -20 -81 -20 -1 0 -9 18 -18 40 -9 22 -19
40 -23 40 -5 -1 -34 -39 -65 -86z"/>
<path d="M1320 2770 c-26 -26 -26 -81 -2 -103 44 -40 122 -7 122 51 0 60 -78
94 -120 52z"/>
<path d="M2183 2120 c-80 -48 -86 -183 -10 -233 43 -28 92 -31 139 -8 53 25
78 65 78 123 0 109 -115 175 -207 118z"/>
<path d="M3263 2943 l-442 -156 -3 -591 -3 -591 -30 -60 c-19 -37 -43 -69 -64
-82 l-34 -23 -552 0 c-303 0 -554 -2 -556 -4 -3 -3 12 -227 33 -498 20 -271
37 -504 37 -517 1 -15 6 -21 15 -18 7 3 322 224 700 492 597 423 689 492 702
523 28 67 646 1647 651 1665 3 9 1 17 -3 16 -5 0 -208 -71 -451 -156z"/>
</g>
</svg>
